# xmcd CD database file
#
# Track frame offsets:
#	150
#	14900
#	29722
#	44567
#	66745
#	83279
#	97997
#	114866
#	133890
#	149979
#	164522
#	177562
#	191310
#	204723
#	226080
#
# Disc length: 3211 seconds
#
# Revision: 0
# Processed by: cddbd v1.5.2PL0 Copyright (c) Steve Scherf et al.
# Submitted via: CDex 1.51
#
DISCID=e20c890f
DTITLE=John Doe - Freedom is... [2002]
DYEAR=2002
DGENRE=Country
TTITLE0=Catch Me
TTITLE1=Someday - No Day
TTITLE2=Beat-Up World
TTITLE3=A Picture Of This
TTITLE4=Telephone By The Bed
TTITLE5=Ever After
TTITLE6=Ultimately Yrs.
TTITLE7=When No One Cares
TTITLE8=Smile and Wave
TTITLE9=Too Many Goddamn Bands
TTITLE10=Drift Away
TTITLE11=Glass-Phalt
TTITLE12=Totally Yours
TTITLE13=Sueltame
TTITLE14=Them and Us (Bonustrack)
EXTD=YEAR: 2002
EXTT0=
EXTT1=
EXTT2=
EXTT3=
EXTT4=
EXTT5=
EXTT6=
EXTT7=
EXTT8=
EXTT9=
EXTT10=
EXTT11=
EXTT12=
EXTT13=
EXTT14=
PLAYORDER=
